<svg width="40" height="40" viewBox="0 0 40 40" fill="none" xmlns="http://www.w3.org/2000/svg">
<path d="M6.9999 25.8664C8.87467 25.8664 10.3999 27.392 10.3999 29.2664C10.3999 31.1412 8.87467 32.6664 6.9999 32.6664C5.12552 32.6664 3.5999 31.1412 3.5999 29.2664C3.5999 27.392 5.12552 25.8664 6.9999 25.8664ZM6.9999 30.2664C7.55147 30.2664 7.9999 29.818 7.9999 29.2664C7.9999 28.7148 7.55147 28.2664 6.9999 28.2664C6.44833 28.2664 5.9999 28.7148 5.9999 29.2664C5.9999 29.818 6.44833 30.2664 6.9999 30.2664Z" fill="#313280"/>
<path d="M7.32562 11.7332H13.2C13.642 11.7332 14 12.0916 14 12.5332V28.1332C14 28.5748 13.642 28.9332 13.2 28.9332H12.3516C11.9556 28.9332 11.6048 28.648 11.5536 28.2552C11.2396 25.8496 9.32078 24.3576 6.99961 24.3576C4.67843 24.3576 2.75961 25.8497 2.44562 28.2552C2.39445 28.648 2.04405 28.9332 1.64764 28.9332H0.800066C0.358497 28.9332 6.19888e-05 28.5748 6.19888e-05 28.1332V20.3332C6.19888e-05 20.1452 0.0660782 19.9636 0.186471 19.82L6.71209 12.02C6.86399 11.8384 7.08882 11.7332 7.32562 11.7332ZM12.4 18.1332V14.1332C12.4 13.6916 12.042 13.3332 11.6 13.3332H8.07601C7.83882 13.3332 7.61359 13.4388 7.46163 13.6212L4.12843 17.6212C3.69444 18.1424 4.06483 18.9332 4.7432 18.9332H11.6C12.042 18.9332 12.4 18.5752 12.4 18.1332Z" fill="#313280"/>
<path d="M39.2 28.9336H37.1516C36.7556 28.9336 36.4048 28.6484 36.3536 28.2556C36.0396 25.85 34.1208 24.358 31.7996 24.358C29.4784 24.358 27.5596 25.8501 27.2456 28.2556C27.1944 28.6484 26.8441 28.9336 26.4476 28.9336H16.4C15.9584 28.9336 15.6 28.5752 15.6 28.1336V8.1336C15.6 7.69203 15.9584 7.3336 16.4 7.3336H39.2C39.642 7.3336 40 7.69203 40 8.1336V28.1336C40 28.5752 39.642 28.9336 39.2 28.9336Z" fill="#313280"/>
<path d="M31.8 25.8664C33.6747 25.8664 35.2 27.392 35.2 29.2664C35.2 31.1412 33.6747 32.6664 31.8 32.6664C29.9256 32.6664 28.4 31.1412 28.4 29.2664C28.4 27.392 29.9256 25.8664 31.8 25.8664ZM31.8 30.2664C32.3515 30.2664 32.8 29.818 32.8 29.2664C32.8 28.7148 32.3515 28.2664 31.8 28.2664C31.2484 28.2664 30.8 28.7148 30.8 29.2664C30.8 29.818 31.2484 30.2664 31.8 30.2664Z" fill="#313280"/>
</svg>
