<svg width="38" height="38" viewBox="0 0 38 38" fill="none" xmlns="http://www.w3.org/2000/svg">
<path d="M1.78125 24.3438C2.10917 24.3438 2.375 24.0779 2.375 23.75C2.375 23.4221 2.10917 23.1562 1.78125 23.1562C1.45333 23.1562 1.1875 23.4221 1.1875 23.75C1.1875 24.0779 1.45333 24.3438 1.78125 24.3438Z" fill="#313280"/>
<path d="M28.1615 20.8644L26.5524 19.9322C26.4292 20.3114 26.2291 20.661 25.9646 20.9594L27.5677 21.8856C27.6325 21.9263 27.7049 21.9531 27.7806 21.9644C27.8562 21.9756 27.9333 21.971 28.0071 21.9509C28.1608 21.9116 28.293 21.8135 28.3752 21.6778C28.4147 21.6104 28.4405 21.5359 28.4512 21.4584C28.4618 21.381 28.4571 21.3023 28.4372 21.2267C28.4173 21.1512 28.3828 21.0802 28.3355 21.0181C28.2881 20.9559 28.229 20.9037 28.1615 20.8644Z" fill="#313280"/>
<path d="M24.3438 16.0906V11.2813C24.3438 11.1238 24.2812 10.9728 24.1699 10.8614C24.0585 10.7501 23.9075 10.6875 23.75 10.6875C23.6735 10.6862 23.5976 10.7008 23.527 10.7305C23.4565 10.7601 23.3929 10.8041 23.3403 10.8597C23.2817 10.9131 23.235 10.9782 23.2033 11.0508C23.1716 11.1235 23.1556 11.202 23.1563 11.2813V16.0906C23.5481 16.0115 23.9519 16.0115 24.3438 16.0906Z" fill="#313280"/>
<path d="M23.75 20.7812C24.7338 20.7812 25.5312 19.9838 25.5312 19C25.5312 18.0162 24.7338 17.2188 23.75 17.2188C22.7662 17.2188 21.9688 18.0162 21.9688 19C21.9688 19.9838 22.7662 20.7812 23.75 20.7812Z" fill="#313280"/>
<path d="M13.7037 8.90626H4.74992C4.67342 8.90494 4.59748 8.91957 4.52695 8.94921C4.45641 8.97886 4.39283 9.02287 4.34023 9.07844C4.28103 9.1326 4.234 9.19871 4.20227 9.27241C4.17053 9.34611 4.15482 9.42571 4.15617 9.50594C4.15617 9.52376 4.16211 9.54157 4.16211 9.56532C4.17281 9.66814 4.21418 9.76537 4.28086 9.84438C4.34619 9.9226 4.42792 9.98549 4.52027 10.0286C4.61262 10.0717 4.71332 10.0939 4.81523 10.0938H8.31242C8.78484 10.0938 9.23791 10.2814 9.57196 10.6155C9.90601 10.9495 10.0937 11.4026 10.0937 11.875C10.0923 12.347 9.90414 12.7992 9.5704 13.133C9.23666 13.4667 8.78441 13.6548 8.31242 13.6563H6.53117C6.45467 13.6549 6.37874 13.6696 6.3082 13.6992C6.23766 13.7289 6.17408 13.7729 6.12148 13.8284C6.06228 13.8826 6.01525 13.9487 5.98352 14.0224C5.95178 14.0961 5.93607 14.1757 5.93742 14.2559C5.93742 14.2738 5.94336 14.2916 5.94336 14.3153C5.95406 14.4181 5.99543 14.5154 6.06211 14.5944C6.12744 14.6726 6.20917 14.7355 6.30152 14.7786C6.39387 14.8217 6.49457 14.8439 6.59648 14.8438H7.12492C7.59734 14.8438 8.05041 15.0314 8.38446 15.3655C8.71851 15.6995 8.90617 16.1526 8.90617 16.625C8.90476 17.097 8.71664 17.5492 8.3829 17.883C8.04916 18.2167 7.59691 18.4048 7.12492 18.4063H1.78117C1.70467 18.4049 1.62873 18.4196 1.5582 18.4492C1.48766 18.4789 1.42408 18.5229 1.37148 18.5784C1.31746 18.6288 1.27391 18.6894 1.24335 18.7566C1.21278 18.8239 1.19579 18.8965 1.19336 18.9703V19.0594C1.20238 19.193 1.2618 19.3182 1.35961 19.4097C1.41298 19.4683 1.47811 19.515 1.55075 19.5467C1.62339 19.5784 1.70191 19.5945 1.78117 19.5938H7.12492C7.59734 19.5938 8.05041 19.7814 8.38446 20.1155C8.71851 20.4495 8.90617 20.9026 8.90617 21.375C8.90476 21.847 8.71664 22.2992 8.3829 22.633C8.04916 22.9667 7.59691 23.1548 7.12492 23.1563H6.59648C6.44033 23.1507 6.28755 23.2026 6.16715 23.3022C6.04676 23.4018 5.96712 23.5421 5.94336 23.6966C5.93338 23.7814 5.9432 23.8673 5.97205 23.9477C6.00089 24.028 6.04798 24.1006 6.10961 24.1597C6.16298 24.2183 6.22811 24.265 6.30075 24.2967C6.3734 24.3284 6.45191 24.3444 6.53117 24.3438H8.31242C8.78484 24.3438 9.23791 24.5314 9.57196 24.8655C9.90601 25.1995 10.0937 25.6526 10.0937 26.125C10.0923 26.597 9.90414 27.0492 9.5704 27.383C9.23666 27.7167 8.78441 27.9048 8.31242 27.9063H4.81523C4.65908 27.9007 4.5063 27.9526 4.3859 28.0522C4.26551 28.1518 4.18587 28.2921 4.16211 28.4466C4.15213 28.5314 4.16195 28.6173 4.1908 28.6977C4.21964 28.778 4.26673 28.8506 4.32836 28.9097C4.38173 28.9683 4.44686 29.015 4.5195 29.0467C4.59214 29.0784 4.67066 29.0944 4.74992 29.0938H13.7037C12.3716 27.7719 11.3144 26.1994 10.5929 24.4671C9.87146 22.7347 9.50002 20.8766 9.50002 19C9.50002 17.1234 9.87146 15.2653 10.5929 13.533C11.3144 11.8006 12.3716 10.2281 13.7037 8.90626Z" fill="#313280"/>
<path d="M23.75 5.9375C21.1665 5.9375 18.641 6.7036 16.4929 8.13893C14.3448 9.57425 12.6705 11.6143 11.6818 14.0012C10.6932 16.3881 10.4345 19.0145 10.9385 21.5484C11.4425 24.0822 12.6866 26.4098 14.5134 28.2366C16.3402 30.0634 18.6678 31.3075 21.2016 31.8115C23.7355 32.3155 26.3619 32.0568 28.7488 31.0682C31.1357 30.0795 33.1758 28.4053 34.6111 26.2571C36.0464 24.109 36.8125 21.5835 36.8125 19C36.8084 15.5369 35.4309 12.2167 32.9821 9.76793C30.5333 7.31912 27.2131 5.94159 23.75 5.9375ZM23.75 30.875C21.4014 30.875 19.1054 30.1785 17.1526 28.8737C15.1998 27.5689 13.6777 25.7142 12.7789 23.5444C11.8801 21.3745 11.645 18.9868 12.1032 16.6833C12.5614 14.3798 13.6924 12.2639 15.3531 10.6031C17.0139 8.94236 19.1298 7.81137 21.4333 7.35317C23.7368 6.89498 26.1245 7.13014 28.2944 8.02893C30.4642 8.92772 32.3189 10.4498 33.6237 12.4026C34.9285 14.3554 35.625 16.6513 35.625 19C35.6219 22.1485 34.3697 25.1671 32.1434 27.3934C29.9171 29.6197 26.8985 30.8719 23.75 30.875Z" fill="#313280"/>
<path d="M23.75 8.3125C21.6362 8.3125 19.5699 8.93931 17.8123 10.1137C16.0548 11.288 14.685 12.9572 13.876 14.9101C13.0671 16.863 12.8555 19.0119 13.2679 21.085C13.6802 23.1582 14.6981 25.0625 16.1928 26.5572C17.6875 28.0519 19.5918 29.0698 21.665 29.4821C23.7381 29.8945 25.887 29.6829 27.8399 28.874C29.7928 28.0651 31.462 26.6952 32.6363 24.9377C33.8107 23.1801 34.4375 21.1138 34.4375 19C34.4353 16.1662 33.3086 13.449 31.3048 11.4452C29.301 9.44141 26.5838 8.3147 23.75 8.3125ZM27.2828 11.0972C27.4021 10.8937 27.5959 10.7447 27.8231 10.6816C27.9454 10.6492 28.0732 10.6432 28.198 10.6641C28.3228 10.6849 28.4417 10.7322 28.5468 10.8026C28.6519 10.873 28.7408 10.965 28.8076 11.0724C28.8744 11.1799 28.9175 11.3004 28.9341 11.4258C28.9507 11.5512 28.9403 11.6787 28.9038 11.7998C28.8672 11.921 28.8053 12.0329 28.7221 12.1282C28.6389 12.2235 28.5363 12.3 28.4212 12.3526C28.3062 12.4052 28.1812 12.4326 28.0547 12.4331C27.8587 12.4333 27.668 12.3689 27.5124 12.2497C27.3567 12.1305 27.2447 11.9634 27.1938 11.7741C27.1332 11.5455 27.1652 11.3023 27.2828 11.0972ZM15.5206 14.25C15.5791 14.1486 15.6569 14.0597 15.7497 13.9884C15.8425 13.9171 15.9485 13.8648 16.0615 13.8344C16.1746 13.8041 16.2925 13.7964 16.4085 13.8116C16.5246 13.8269 16.6365 13.8649 16.7378 13.9234C16.8392 13.9819 16.9281 14.0597 16.9994 14.1525C17.0707 14.2453 17.1231 14.3513 17.1534 14.4643C17.1837 14.5774 17.1915 14.6953 17.1762 14.8113C17.1609 14.9274 17.1229 15.0393 17.0644 15.1406C17.0071 15.2429 16.9297 15.3324 16.8369 15.4039C16.744 15.4753 16.6376 15.5271 16.5241 15.5563C16.4483 15.5749 16.3706 15.5848 16.2925 15.5859C16.0965 15.5861 15.9058 15.5217 15.7502 15.4025C15.5945 15.2834 15.4825 15.1162 15.4316 14.9269C15.371 14.6983 15.403 14.4551 15.5206 14.25ZM14.25 19C14.25 18.8239 14.3022 18.6517 14.4001 18.5052C14.498 18.3587 14.6371 18.2446 14.7998 18.1772C14.9625 18.1098 15.1416 18.0921 15.3144 18.1265C15.4871 18.1609 15.6458 18.2457 15.7704 18.3702C15.895 18.4948 15.9798 18.6535 16.0141 18.8262C16.0485 18.999 16.0309 19.1781 15.9635 19.3408C15.896 19.5036 15.7819 19.6427 15.6354 19.7405C15.489 19.8384 15.3168 19.8906 15.1406 19.8906C14.9044 19.8906 14.6779 19.7968 14.5109 19.6298C14.3438 19.4627 14.25 19.2362 14.25 19ZM16.7378 24.0766C16.6042 24.1537 16.4527 24.1946 16.2984 24.1953C16.2184 24.1946 16.1387 24.1846 16.0609 24.1656C15.8326 24.1042 15.638 23.9546 15.52 23.7497C15.402 23.5448 15.3702 23.3015 15.4316 23.0731C15.493 22.8448 15.6426 22.6502 15.8475 22.5322C16.0524 22.4141 16.2957 22.3823 16.5241 22.4437C16.6376 22.4729 16.744 22.5247 16.8369 22.5961C16.9297 22.6676 17.0071 22.7571 17.0644 22.8594C17.1428 22.9946 17.1838 23.1483 17.1831 23.3047C17.1832 23.4611 17.1421 23.6148 17.064 23.7503C16.9858 23.8858 16.8733 23.9983 16.7378 24.0766ZM20.2172 26.9028C20.0979 27.1063 19.9041 27.2553 19.6769 27.3184C19.6011 27.3371 19.5234 27.347 19.4453 27.3481C19.2493 27.3483 19.0587 27.2839 18.903 27.1647C18.7473 27.0455 18.6353 26.8784 18.5844 26.6891C18.5382 26.5187 18.5437 26.3385 18.6002 26.1713C18.6566 26.0041 18.7615 25.8574 18.9015 25.7499C19.0414 25.6424 19.2102 25.5789 19.3863 25.5674C19.5624 25.556 19.7379 25.5971 19.8906 25.6856C19.9929 25.7429 20.0824 25.8203 20.1539 25.9132C20.2253 26.006 20.2771 26.1124 20.3063 26.2259C20.3668 26.4545 20.3348 26.6977 20.2172 26.9028ZM20.3063 11.7741C20.2553 11.9634 20.1433 12.1305 19.9876 12.2497C19.832 12.3689 19.6413 12.4333 19.4453 12.4331C19.3085 12.4333 19.1736 12.4019 19.0509 12.3415C18.9281 12.281 18.821 12.1931 18.7377 12.0846C18.6545 11.9761 18.5973 11.8499 18.5707 11.7157C18.5442 11.5815 18.5488 11.443 18.5844 11.3109C18.6458 11.0826 18.7954 10.888 19.0003 10.77C19.2052 10.652 19.4485 10.6201 19.6769 10.6816C19.9052 10.743 20.0998 10.8926 20.2178 11.0975C20.3359 11.3023 20.3677 11.5457 20.3063 11.7741ZM23.75 28.5C23.5739 28.5 23.4017 28.4478 23.2552 28.3499C23.1087 28.252 22.9946 28.1129 22.9272 27.9502C22.8598 27.7875 22.8421 27.6084 22.8765 27.4356C22.9109 27.2629 22.9957 27.1042 23.1202 26.9796C23.2448 26.8551 23.4035 26.7702 23.5763 26.7359C23.749 26.7015 23.9281 26.7191 24.0908 26.7865C24.2536 26.854 24.3927 26.9681 24.4905 27.1146C24.5884 27.261 24.6406 27.4332 24.6406 27.6094C24.6406 27.8456 24.5468 28.0721 24.3798 28.2391C24.2127 28.4062 23.9862 28.5 23.75 28.5ZM28.9156 26.6891C28.8647 26.8784 28.7527 27.0455 28.597 27.1647C28.4413 27.2839 28.2507 27.3483 28.0547 27.3481C27.9766 27.347 27.8989 27.3371 27.8231 27.3184C27.5959 27.2553 27.4021 27.1063 27.2828 26.9028C27.1652 26.6977 27.1332 26.4545 27.1938 26.2259C27.2229 26.1124 27.2747 26.006 27.3461 25.9132C27.4176 25.8203 27.5071 25.7429 27.6094 25.6856C27.7621 25.5971 27.9376 25.556 28.1137 25.5674C28.2898 25.5789 28.4586 25.6424 28.5985 25.7499C28.7385 25.8574 28.8434 26.0041 28.8998 26.1713C28.9563 26.3385 28.9618 26.5187 28.9156 26.6891ZM29.4084 22.2656C29.2911 22.4702 29.134 22.6491 28.9464 22.7919C28.7587 22.9347 28.5444 23.0384 28.3159 23.0969C28.167 23.1374 28.0131 23.1574 27.8588 23.1562C27.5455 23.1557 27.2381 23.0716 26.9681 22.9128L24.9197 21.7253C24.2544 22.0153 23.5057 22.0506 22.8161 21.8245C22.1264 21.5983 21.544 21.1266 21.1796 20.4989C20.8152 19.8713 20.6942 19.1316 20.8397 18.4206C20.9852 17.7095 21.3871 17.0768 21.9688 16.6428V11.2812C21.9688 10.8088 22.1564 10.3558 22.4905 10.0217C22.8245 9.68767 23.2776 9.5 23.75 9.5C24.222 9.50141 24.6742 9.68953 25.008 10.0233C25.3417 10.357 25.5298 10.8093 25.5313 11.2812V16.6428C25.8473 16.881 26.1122 17.1804 26.3101 17.5232C26.508 17.8659 26.6348 18.245 26.6831 18.6378L28.7553 19.8313C29.163 20.0691 29.4604 20.4582 29.5827 20.9141C29.705 21.37 29.6424 21.8557 29.4084 22.2656ZM31.9794 23.75C31.8605 23.9538 31.6666 24.103 31.4391 24.1656C31.3613 24.1846 31.2816 24.1946 31.2016 24.1953C31.0457 24.1944 30.8928 24.1525 30.7581 24.074C30.6235 23.9954 30.5118 23.8829 30.4343 23.7477C30.3567 23.6125 30.3161 23.4592 30.3163 23.3034C30.3165 23.1475 30.3577 22.9944 30.4356 22.8594C30.4929 22.7571 30.5703 22.6676 30.6632 22.5961C30.756 22.5247 30.8624 22.4729 30.9759 22.4437C31.2045 22.3832 31.4477 22.4152 31.6528 22.5328C31.8563 22.6521 32.0053 22.8459 32.0684 23.0731C32.129 23.3017 32.097 23.5449 31.9794 23.75ZM33.25 19C33.25 19.1761 33.1978 19.3483 33.0999 19.4948C33.002 19.6413 32.8629 19.7554 32.7002 19.8228C32.5375 19.8902 32.3584 19.9079 32.1856 19.8735C32.0129 19.8391 31.8542 19.7543 31.7296 19.6298C31.6051 19.5052 31.5202 19.3465 31.4859 19.1738C31.4515 19.001 31.4691 18.8219 31.5366 18.6592C31.604 18.4964 31.7181 18.3573 31.8646 18.2595C32.011 18.1616 32.1832 18.1094 32.3594 18.1094C32.5956 18.1094 32.8221 18.2032 32.9891 18.3702C33.1562 18.5373 33.25 18.7638 33.25 19ZM31.9794 14.25C32.097 14.4551 32.129 14.6983 32.0684 14.9269C32.0175 15.1162 31.9055 15.2834 31.7498 15.4025C31.5942 15.5217 31.4035 15.5861 31.2075 15.5859C31.1294 15.5848 31.0518 15.5749 30.9759 15.5563C30.8624 15.5271 30.756 15.4753 30.6632 15.4039C30.5703 15.3324 30.4929 15.2429 30.4356 15.1406C30.3471 14.9879 30.306 14.8124 30.3174 14.6363C30.3289 14.4602 30.3924 14.2914 30.4999 14.1515C30.6074 14.0115 30.7541 13.9066 30.9213 13.8502C31.0885 13.7937 31.2687 13.7882 31.4391 13.8344C31.6666 13.897 31.8605 14.0462 31.9794 14.25Z" fill="#313280"/>
<path d="M1.78125 14.8438C2.10917 14.8438 2.375 14.5779 2.375 14.25C2.375 13.9221 2.10917 13.6562 1.78125 13.6562C1.45333 13.6562 1.1875 13.9221 1.1875 14.25C1.1875 14.5779 1.45333 14.8438 1.78125 14.8438Z" fill="#313280"/>
</svg>
