<svg width="27" height="27" viewBox="0 0 27 27" fill="none" xmlns="http://www.w3.org/2000/svg">
<g clip-path="url(#clip0_33_102)">
<path d="M7.31472 7.22461H6.97616L6.34351 10.3887H7.94737L7.31472 7.22461Z" fill="#313280"/>
<path d="M20.1116 13.5527C20.4531 14.4703 20.9074 15.213 21.4102 15.8449C21.913 15.213 22.42 14.4702 22.7616 13.5527H20.1116Z" fill="#313280"/>
<path d="M24.6269 4.79883H14.8034L16.8517 21.235C16.8879 21.9073 16.7041 22.5402 16.2654 23.0357L12.7966 27H24.6269C25.9355 27 26.9999 25.9355 26.9999 24.627V7.22461C26.9999 5.91606 25.9355 4.79883 24.6269 4.79883ZM24.6269 13.5527H24.4156C23.9656 14.9968 23.2518 16.1267 22.51 17.0175C23.0911 17.5487 23.7125 17.9845 24.3303 18.4726C24.6709 18.7453 24.7266 19.2428 24.4531 19.5842C24.1809 19.9252 23.6815 19.9804 23.3415 19.707C22.6702 19.1772 22.0402 18.7337 21.4101 18.1555C20.78 18.7337 20.2027 19.1772 19.5314 19.707C19.1915 19.9804 18.6921 19.9252 18.4199 19.5842C18.1464 19.2428 18.202 18.7453 18.5427 18.4726C19.1605 17.9845 19.7291 17.5487 20.3102 17.0175C19.5684 16.1268 18.9073 14.9968 18.4573 13.5527H18.246C17.8088 13.5527 17.455 13.1989 17.455 12.7617C17.455 12.3245 17.8088 11.9707 18.246 11.9707H20.6191V11.1797C20.6191 10.7425 20.9729 10.3887 21.4101 10.3887C21.8473 10.3887 22.2011 10.7425 22.2011 11.1797V11.9707H24.6269C25.0641 11.9707 25.4179 12.3245 25.4179 12.7617C25.4179 13.1989 25.0641 13.5527 24.6269 13.5527Z" fill="#313280"/>
<path d="M12.8758 2.07874C12.7283 0.893742 11.7156 0 10.5214 0H2.37305C1.0645 0 0 1.0645 0 2.37305V19.8809C0 21.1894 1.0645 22.2539 2.37305 22.2539C7.10174 22.2539 10.5035 22.2539 14.8474 22.2539C15.0782 21.9901 15.2716 21.825 15.2798 21.4807C15.2818 21.3943 12.8865 2.16438 12.8758 2.07874ZM9.70017 15.1193C9.28072 15.2056 8.85584 14.9333 8.76936 14.499L8.26379 11.9707H6.02728L5.52171 14.499C5.43676 14.9269 5.02421 15.2081 4.5909 15.1193C4.16296 15.0336 3.88484 14.6172 3.97058 14.1885L5.55256 6.27834C5.6267 5.9091 5.95118 5.64258 6.32812 5.64258H7.96289C8.33984 5.64258 8.66431 5.9091 8.73845 6.27834L10.3205 14.1885C10.4062 14.6172 10.1282 15.0336 9.70017 15.1193Z" fill="#313280"/>
<path d="M9.24219 23.8359L9.37793 24.9213C9.46842 25.6481 9.95136 26.3893 10.7457 26.7594C12.2449 25.1091 11.3379 26.1075 13.4014 23.8359H9.24219Z" fill="#313280"/>
</g>
<defs>
<clipPath id="clip0_33_102">
<rect width="27" height="27" fill="white"/>
</clipPath>
</defs>
</svg>
