<svg width="34" height="34" viewBox="0 0 34 34" fill="none" xmlns="http://www.w3.org/2000/svg">
<g clip-path="url(#clip0_33_239)">
<path d="M33.6419 23.2949L30.4204 20.0731L23.7561 26.7373C22.5665 27.9269 21.0734 28.7026 19.4517 28.9928L23.6978 33.2389C24.0866 33.628 24.7175 33.628 25.1063 33.2389L33.6419 24.7037C34.031 24.3146 34.031 23.6837 33.6419 23.2949Z" fill="#313280"/>
<path d="M29.108 18.5681C30.2309 17.4454 30.2312 15.6184 29.1096 14.495C29.1083 14.4937 29.107 14.4924 29.1057 14.4911C28.8281 14.2138 28.5039 14 28.1508 13.8571C28.4569 13.0828 28.5215 11.7734 27.5075 10.7591C27.5049 10.7565 27.5023 10.7537 27.4995 10.7511C27.2232 10.4766 26.901 10.2649 26.5503 10.1228C26.8564 9.34901 26.9213 8.0393 25.9078 7.02557C25.907 7.02479 25.9065 7.02427 25.906 7.02375C25.6282 6.74593 25.3037 6.53167 24.9501 6.38874C25.2562 5.61443 25.3208 4.30473 24.3068 3.29047C24.3065 3.29047 24.3065 3.29021 24.3063 3.29021C24.306 3.28995 24.3057 3.28969 24.3055 3.28944C23.182 2.16598 21.3543 2.16598 20.2308 3.28944L18.3421 5.17786L19.3079 6.14361C20.9172 7.75292 20.9172 10.3713 19.3082 11.9806C18.7665 12.522 18.1012 12.894 17.3759 13.0711C17.2023 13.7783 16.8402 14.4485 16.2885 15C15.7476 15.5409 15.0833 15.9126 14.3588 16.09C14.1816 16.8143 13.8097 17.4789 13.2691 18.0194C12.7282 18.5603 12.0639 18.932 11.3394 19.1094C11.1622 19.8337 10.7902 20.4983 10.2497 21.0391C9.47016 21.8183 8.4336 22.2479 7.33115 22.2479C6.2287 22.2479 5.19214 21.8186 4.41265 21.0389L3.4469 20.0731L0.225418 23.2948C-0.163681 23.6839 -0.163681 24.3146 0.225418 24.7036L8.7607 33.2389C9.1498 33.628 9.7804 33.6278 10.1695 33.2389L16.2794 27.1293H18.0008C19.6428 27.1293 21.1865 26.4896 22.3475 25.3288L29.108 18.5681Z" fill="#313280"/>
<path d="M5.82136 19.6303C6.65507 20.4643 8.00706 20.4643 8.84077 19.6303C9.67474 18.7966 9.67474 17.4449 8.84077 16.6109C9.67474 17.4449 11.0265 17.4449 11.8604 16.6109C12.6942 15.7772 12.6942 14.4252 11.8604 13.5915C12.6942 14.4252 14.0461 14.4252 14.8799 13.5915C15.7136 12.7578 15.7136 11.4058 14.8799 10.5721C15.7136 11.4058 17.0656 11.4058 17.8993 10.5721C18.7332 9.73811 18.7332 8.38638 17.8993 7.55241L13.642 3.29514C12.8083 2.46143 11.4563 2.46143 10.6226 3.29514C9.78888 4.12885 9.78888 5.48084 10.6226 6.31455L11.1559 6.84814C10.3222 6.01417 8.97021 6.01417 8.1365 6.84814C7.30279 7.68185 7.30279 9.03384 8.1365 9.86755L9.20341 10.9345C8.3697 10.1007 7.01771 10.1007 6.184 10.9345C5.35003 11.7682 5.35003 13.1202 6.184 13.9539L7.25091 15.021C6.41694 14.1871 5.06521 14.1871 4.23124 15.021C3.39753 15.8548 3.39753 17.2065 4.23124 18.0405L5.82136 19.6303Z" fill="#313280"/>
<path d="M18.8219 1.88064C18.9693 1.7333 19.1252 1.59789 19.2873 1.47208L18.7047 0.88947C18.4017 0.586232 17.9382 0.511265 17.555 0.702702L15.0964 1.932L16.9335 3.76932L18.8219 1.88064Z" fill="#313280"/>
</g>
<defs>
<clipPath id="clip0_33_239">
<rect width="34" height="34" fill="white"/>
</clipPath>
</defs>
</svg>
