<svg width="37" height="37" viewBox="0 0 37 37" fill="none" xmlns="http://www.w3.org/2000/svg">
<g clip-path="url(#clip0_33_231)">
<path d="M20.8024 0.00628137C20.2064 -0.0561561 19.6655 0.354529 19.5924 0.947324C19.5184 1.54221 19.9397 2.0832 20.5335 2.15727C22.0049 2.34039 23.4425 2.86135 24.807 3.43724C25.3647 3.66892 25.9962 3.40761 26.2276 2.85926C26.4594 2.30671 26.2011 1.6715 25.6496 1.43866C24.1009 0.786533 22.4696 0.213756 20.8024 0.00628137Z" fill="#313280"/>
<path d="M32.9739 8.80954C33.4512 8.44749 33.5445 7.76682 33.1824 7.29044C32.1672 5.95345 30.9742 4.76042 29.6372 3.74523C29.1598 3.38535 28.4812 3.47532 28.1181 3.95379C27.7561 4.43017 27.8492 5.11084 28.3267 5.47289C29.507 6.36848 30.5592 7.42066 31.4548 8.60098C31.818 9.07938 32.4976 9.16985 32.9739 8.80954Z" fill="#313280"/>
<path d="M34.0686 10.7001C33.517 10.9331 33.2587 11.5682 33.4906 12.1207C34.0665 13.4853 34.6574 14.995 34.8406 16.4665C34.9116 17.0414 35.4315 17.4796 36.0505 17.4075C36.6444 17.3335 37.0657 16.7925 36.9916 16.1976C36.7841 14.5304 36.1412 12.8268 35.4891 11.2781C35.2563 10.7266 34.6201 10.4715 34.0686 10.7001Z" fill="#313280"/>
<path d="M11.3503 1.43867C10.7988 1.67158 10.5405 2.30673 10.7723 2.85927C11.0041 3.40878 11.6365 3.66843 12.1929 3.43725C13.5574 2.86136 14.9949 2.3404 16.4664 2.15728C17.0603 2.08321 17.4816 1.54223 17.4074 0.947337C17.3334 0.354542 16.7903 -0.0562157 16.1975 0.00629408C14.5303 0.213769 12.899 0.786546 11.3503 1.43867Z" fill="#313280"/>
<path d="M18.5 37C27.7773 37 35.8451 29.9951 36.9915 20.8024C37.0655 20.2085 36.6442 19.6666 36.0504 19.5925C35.4534 19.5258 34.9136 19.9397 34.8405 20.5335C33.8285 28.6444 26.686 34.8321 18.5 34.8321C9.53384 34.8321 2.16796 27.4662 2.16796 18.5C2.16796 14.5484 3.73591 10.7026 6.2871 7.76544V8.12431C6.2871 8.72347 6.77193 9.2083 7.37108 9.2083C7.97023 9.2083 8.45506 8.72347 8.45506 8.12431V5.05867C8.45506 4.45951 7.97023 3.97469 7.37108 3.97469H4.30442C3.70527 3.97469 3.22044 4.45951 3.22044 5.05867C3.22044 5.65782 3.70527 6.14193 4.30442 6.14193H4.82647C1.82391 9.49917 0 13.9295 0 18.5C0 28.6613 8.33871 37 18.5 37Z" fill="#313280"/>
<path d="M5.41992 18.5001C5.41992 25.673 11.3271 31.5802 18.5 31.5802C25.6729 31.5802 31.5801 25.673 31.5801 18.5001C31.5801 11.3271 25.6729 5.42 18.5 5.42C11.3271 5.42 5.41992 11.3271 5.41992 18.5001ZM19.584 14.1641C19.584 13.565 20.0688 13.0802 20.668 13.0802C21.2671 13.0802 21.752 13.565 21.752 14.1641V17.4161H23.9199V14.1641C23.9199 13.565 24.4048 13.0802 25.0039 13.0802C25.6031 13.0802 26.0879 13.565 26.0879 14.1641V22.836C26.0879 23.4352 25.6031 23.92 25.0039 23.92C24.4048 23.92 23.9199 23.4352 23.9199 22.836V19.5841H20.668C20.0688 19.5841 19.584 19.0992 19.584 18.5001V14.1641ZM14.1641 15.2481C13.566 15.2481 13.0801 15.734 13.0801 16.3321C13.0801 16.9313 12.5952 17.4161 11.9961 17.4161C11.3969 17.4161 10.9121 16.9313 10.9121 16.3321C10.9121 14.5389 12.3709 13.0802 14.1641 13.0802C15.9573 13.0802 17.416 14.5389 17.416 16.3321C17.416 18.5001 15.9732 19.582 14.814 20.451C14.1719 20.933 13.7146 21.3184 13.4242 21.752H16.332C16.9312 21.752 17.416 22.2369 17.416 22.836C17.416 23.4352 16.9312 23.92 16.332 23.92H11.9961C11.3969 23.92 10.9121 23.4352 10.9121 22.836C10.9121 20.668 12.355 19.5862 13.5141 18.7171C14.6214 17.8861 15.248 17.3653 15.248 16.3321C15.248 15.734 14.7622 15.2481 14.1641 15.2481Z" fill="#313280"/>
</g>
<defs>
<clipPath id="clip0_33_231">
<rect width="37" height="37" fill="white"/>
</clipPath>
</defs>
</svg>
