<svg width="37" height="37" viewBox="0 0 37 37" fill="none" xmlns="http://www.w3.org/2000/svg">
<path d="M1.32129 3.63389H2.64268V4.95528H1.32129V3.63389Z" fill="#313280"/>
<path d="M3.96411 3.63389H5.28578V4.95528H3.96411V3.63389Z" fill="#313280"/>
<path d="M6.60718 3.63389H7.92857V4.95528H6.60718V3.63389Z" fill="#313280"/>
<path d="M29.5861 14.2053H33.6965V10.2411H3.30371V14.2053H16.6641C20.2508 10.6818 25.9993 10.6818 29.5861 14.2053Z" fill="#313280"/>
<path d="M30.1616 26.8012C29.8407 27.1778 29.4903 27.5281 29.1138 27.8491L30.7234 29.4587L31.7712 28.4106L30.1616 26.8012Z" fill="#313280"/>
<path d="M23.1249 12.8839C18.7461 12.8839 15.1963 16.4337 15.1963 20.8125C15.1963 25.1913 18.7461 28.7411 23.1249 28.7411C27.5037 28.7411 31.0535 25.1913 31.0535 20.8125C31.0487 16.4356 27.5018 12.8887 23.1249 12.8839ZM23.1249 27.4197C19.4758 27.4197 16.5177 24.4613 16.5177 20.8125C16.5177 17.1634 19.4758 14.2053 23.1249 14.2053C26.774 14.2053 29.7321 17.1634 29.7321 20.8125C29.7279 24.4599 26.7723 27.4155 23.1249 27.4197Z" fill="#313280"/>
<path d="M28.4108 20.8125C28.4108 23.7316 26.0441 26.0983 23.1249 26.0983C20.2058 26.0983 17.8391 23.7316 17.8391 20.8125C17.8391 17.8934 20.2058 15.5267 23.1249 15.5267C26.0441 15.5267 28.4108 17.8934 28.4108 20.8125Z" fill="#313280"/>
<path d="M33.0358 29.0146L31.3271 30.723L34.9373 34.3341C35.4093 34.8058 36.1746 34.8055 36.6463 34.3335C36.8727 34.1071 37 33.8 37 33.4796C36.9992 33.1595 36.8721 32.8526 36.6466 32.6254L33.0358 29.0146Z" fill="#313280"/>
<path d="M0 2.3125H37V6.27666H0V2.3125Z" fill="#313280"/>
<path d="M0 26.0983H15.5447C13.3186 22.926 13.3186 18.699 15.5447 15.5267H2.64278C2.27778 15.5267 1.98222 15.2311 1.98222 14.8661V9.58028C1.98222 9.21528 2.27806 8.91972 2.64278 8.91972H34.3572C34.7219 8.91972 35.0178 9.21556 35.0178 9.58028V14.8661C35.0178 15.2311 34.7219 15.5267 34.3572 15.5267H30.7053C32.8396 18.5632 32.9362 22.5858 30.9506 25.7215L31.3271 26.0981H37V7.59805H0V26.0983ZM11.2322 24.7767H5.94639V23.4553H11.2322V24.7767ZM3.30361 16.8481H11.8928V18.1697H3.30361V16.8481ZM3.30361 20.1517H10.5714V21.4733H3.30361V20.1517ZM3.30361 23.4553H4.625V24.7767H3.30361V23.4553Z" fill="#313280"/>
</svg>
