<svg width="146" height="46" viewBox="0 0 146 46" fill="none" xmlns="http://www.w3.org/2000/svg">
<g clip-path="url(#clip0_54_4)">
<path d="M19.694 41.2152V45.9013H19.0874V41.2152H17.3667V40.6346H21.4261V41.2152H19.694Z" fill="#9D9D9C"/>
<path d="M25.4206 44.2242H25.0696H23.6618V45.8862H23.0552V40.6347H25.0696C25.6177 40.602 26.1593 40.7663 26.5957 41.0976C26.7822 41.2588 26.9293 41.4601 27.0258 41.6863C27.1223 41.9125 27.1657 42.1575 27.1527 42.4029C27.1664 42.7856 27.0611 43.1632 26.8513 43.4843C26.6322 43.7828 26.3216 44.0025 25.9662 44.1104L27.2061 45.8976H26.5194L25.4206 44.2242ZM26.1836 43.3439C26.3153 43.2298 26.4184 43.0867 26.4846 42.9259C26.5509 42.7652 26.5784 42.5913 26.5652 42.4181C26.5772 42.2489 26.5489 42.0793 26.4826 41.923C26.4163 41.7668 26.3139 41.6283 26.1836 41.5188C25.8564 41.2977 25.4645 41.1909 25.0696 41.2153H23.6618V43.6589H25.0696C25.4665 43.6857 25.8603 43.5744 26.1836 43.3439Z" fill="#9D9D9C"/>
<path d="M29.7243 44.5733L29.1329 45.9013H28.5034L30.8688 40.6346H31.4945L33.8638 45.9013H33.2152L32.6276 44.5733H29.7243ZM31.1588 41.3214L29.9799 43.9775H32.3568L31.1588 41.3214Z" fill="#9D9D9C"/>
<path d="M39.2622 45.9013L36.088 41.6743V45.9013H35.447V40.6346H36.0727L39.2622 44.8692V40.6346H39.865V45.9013H39.2622Z" fill="#9D9D9C"/>
<path d="M44.7026 40.7447C44.9735 40.8249 45.2308 40.9451 45.4657 41.1014L45.2101 41.6668C44.9866 41.5176 44.7406 41.4049 44.4814 41.3329C44.2435 41.2628 43.997 41.2257 43.7488 41.2228C43.464 41.2099 43.1808 41.2728 42.9286 41.405C42.8348 41.4556 42.7567 41.5308 42.7029 41.6225C42.6491 41.7141 42.6216 41.8187 42.6234 41.9248C42.6178 42.0982 42.6777 42.2674 42.7912 42.3991C42.911 42.5258 43.0567 42.6254 43.2185 42.6913C43.3902 42.7596 43.6268 42.8393 43.9205 42.9303C44.2179 43.0207 44.5096 43.1284 44.7942 43.2529C45.0157 43.355 45.2103 43.507 45.3627 43.6968C45.5219 43.9175 45.6037 44.1842 45.5954 44.4557C45.599 44.7277 45.5147 44.9937 45.355 45.2146C45.1832 45.4421 44.9505 45.617 44.6836 45.7193C44.3647 45.846 44.0235 45.9079 43.6802 45.9014C43.3003 45.9021 42.9241 45.8273 42.5738 45.6813C42.2331 45.5457 41.9212 45.3474 41.6543 45.097L41.9252 44.5582C42.166 44.7918 42.4496 44.9773 42.7607 45.1045C43.054 45.2287 43.369 45.2945 43.6878 45.2981C44.0057 45.3154 44.3216 45.2388 44.5958 45.078C44.6828 45.021 44.7567 44.9463 44.8125 44.8588C44.8683 44.7712 44.9048 44.673 44.9196 44.5704C44.9344 44.4678 44.9271 44.3633 44.8982 44.2637C44.8694 44.1642 44.8196 44.0718 44.7522 43.9928C44.6327 43.8649 44.487 43.764 44.3249 43.6968C44.0939 43.6053 43.8583 43.5255 43.6191 43.4578C43.3234 43.3736 43.033 43.2723 42.7493 43.1542C42.5285 43.056 42.3348 42.9064 42.1846 42.7178C42.0254 42.4973 41.9448 42.2302 41.9557 41.959C41.9499 41.703 42.029 41.4523 42.1808 41.2456C42.3449 41.0277 42.5688 40.8617 42.8256 40.7675C43.1317 40.6486 43.4584 40.5906 43.787 40.5968C44.0978 40.6013 44.4063 40.6511 44.7026 40.7447Z" fill="#9D9D9C"/>
<path d="M51.116 41.0976C51.2998 41.261 51.444 41.4636 51.5378 41.6903C51.6317 41.917 51.6727 42.1619 51.6578 42.4067C51.673 42.6576 51.6324 42.9088 51.5387 43.1423C51.4451 43.3758 51.3007 43.5859 51.116 43.7575C50.6858 44.1023 50.1413 44.2742 49.5899 44.2394H48.205V45.9013H47.5984V40.6347H49.5899C50.1383 40.5995 50.6807 40.7641 51.116 41.0976ZM48.2088 43.6588H49.5632C49.9613 43.6866 50.3567 43.5752 50.6811 43.3439C50.8114 43.2287 50.9135 43.0854 50.9796 42.9249C51.0457 42.7644 51.0741 42.5911 51.0626 42.418C51.0743 42.2489 51.0459 42.0794 50.9796 41.9232C50.9134 41.7669 50.8111 41.6284 50.6811 41.5188C50.354 41.2971 49.962 41.1903 49.567 41.2152H48.205L48.2088 43.6588Z" fill="#9D9D9C"/>
<path d="M57.0829 40.9761C57.4992 41.2003 57.8472 41.532 58.0901 41.9361C58.3408 42.3355 58.4731 42.7971 58.4717 43.2679C58.4727 43.7411 58.3405 44.2051 58.0901 44.6074C57.8469 45.0133 57.4992 45.3473 57.0829 45.575C56.6564 45.8088 56.1774 45.9315 55.6904 45.9315C55.2034 45.9315 54.7243 45.8088 54.2978 45.575C53.8835 45.3447 53.5364 45.0113 53.2906 44.6074C53.0485 44.2021 52.9207 43.7394 52.9207 43.2679C52.9207 42.7965 53.0485 42.3338 53.2906 41.9285C53.5354 41.5268 53.883 41.1969 54.2978 40.9723C54.7258 40.7358 55.2084 40.6141 55.698 40.6194C56.1832 40.6149 56.6609 40.738 57.0829 40.9761ZM54.6183 41.4732C54.2941 41.6548 54.0222 41.9161 53.8286 42.2321C53.631 42.5444 53.5277 42.9066 53.531 43.2755C53.5277 43.6469 53.631 44.0115 53.8286 44.3266C54.0247 44.6439 54.2997 44.9056 54.6272 45.0864C54.9547 45.2672 55.3235 45.361 55.698 45.3587C56.0738 45.363 56.4439 45.2673 56.7701 45.0817C57.0926 44.9006 57.3622 44.639 57.5522 44.3228C57.7458 44.0063 57.8462 43.6422 57.8421 43.2717C57.8471 42.9036 57.7465 42.5417 57.5522 42.2283C57.3604 41.9134 57.0913 41.6523 56.7701 41.4694C56.4417 41.2852 56.0712 41.1884 55.6942 41.1884C55.3172 41.1884 54.9466 41.2852 54.6183 41.4694V41.4732Z" fill="#9D9D9C"/>
<path d="M62.6874 44.2241H62.3364H60.9286V45.8861H60.322V40.6346H62.3364C62.8842 40.6046 63.4249 40.7686 63.8625 41.0975C64.0525 41.257 64.2035 41.4574 64.304 41.6836C64.4044 41.9098 64.4518 42.1557 64.4424 42.4028C64.455 42.7859 64.3484 43.1636 64.1372 43.4842C63.9187 43.7816 63.6097 44.0012 63.2559 44.1103L64.492 45.8975H63.8053L62.6874 44.2241ZM63.4505 43.3438C63.5822 43.2297 63.6852 43.0866 63.7515 42.9258C63.8177 42.7651 63.8453 42.5912 63.832 42.418C63.8441 42.2488 63.8158 42.0792 63.7495 41.9229C63.6832 41.7667 63.5807 41.6282 63.4505 41.5187C63.1235 41.297 62.7314 41.1902 62.3364 41.2152H60.9286V43.6588H62.3364C62.7333 43.6859 63.1273 43.5746 63.4505 43.3438Z" fill="#9D9D9C"/>
<path d="M68.1547 41.2152V45.9013H67.548V41.2152H65.8274V40.6346H69.8868V41.2152H68.1547Z" fill="#9D9D9C"/>
<path d="M77.1928 45.1273C76.9921 45.3682 76.7426 45.5643 76.4606 45.7029C76.1786 45.8415 75.8704 45.9195 75.5561 45.9317C75.2788 45.9337 75.0051 45.8686 74.7587 45.742C74.5248 45.6257 74.328 45.447 74.1903 45.2259C74.0471 44.9991 73.9753 44.7348 73.9843 44.4671C73.9723 44.1509 74.0861 43.8428 74.3009 43.6095C74.5578 43.3497 74.8555 43.1331 75.1822 42.9682C75.0166 42.7697 74.8781 42.5502 74.7702 42.3156C74.6884 42.1313 74.6443 41.9327 74.6405 41.7313C74.6363 41.5774 74.6663 41.4246 74.7283 41.2836C74.7903 41.1426 74.8827 41.0169 74.9991 40.9155C75.2577 40.6929 75.5922 40.5774 75.9338 40.5929C76.2554 40.58 76.5705 40.6853 76.8189 40.8889C76.9282 40.9827 77.0153 41.0994 77.074 41.2306C77.1327 41.3618 77.1616 41.5042 77.1585 41.6478C77.1611 41.8563 77.0984 42.0606 76.9792 42.2321C76.8597 42.4054 76.7098 42.5558 76.5366 42.6761C76.3535 42.7975 76.1284 42.9303 75.8499 43.0783C76.1208 43.3856 76.5481 43.8372 77.1356 44.4101C77.3572 44.0917 77.5392 43.7477 77.6774 43.3856L78.0818 43.693C77.922 44.0656 77.7211 44.4194 77.4828 44.7478L78.3984 45.6433L78.0818 45.9734L77.1928 45.1273ZM76.8571 44.7896C76.1818 44.118 75.7125 43.6285 75.4417 43.3135C75.1812 43.4508 74.9412 43.6232 74.7282 43.8258C74.6475 43.9072 74.584 44.0039 74.5414 44.1101C74.4988 44.2163 74.478 44.33 74.4802 44.4443C74.4763 44.5804 74.5022 44.7158 74.5563 44.841C74.6103 44.9661 74.6911 45.0781 74.7931 45.169C75.0101 45.3577 75.2908 45.458 75.579 45.4498C75.8269 45.4362 76.0691 45.3703 76.2895 45.2564C76.5098 45.1426 76.7033 44.9835 76.8571 44.7896ZM75.2356 42.2207C75.3325 42.4208 75.4502 42.6103 75.5866 42.7861C75.8771 42.6416 76.1509 42.466 76.4031 42.2625C76.489 42.1904 76.5579 42.1002 76.6047 41.9986C76.6515 41.8969 76.6752 41.7862 76.674 41.6743C76.6776 41.5853 76.6613 41.4967 76.6263 41.4146C76.5914 41.3326 76.5386 41.2594 76.4718 41.2C76.3212 41.0758 76.1293 41.0121 75.9338 41.0217C75.7187 41.0118 75.5081 41.0852 75.3463 41.2266C75.2751 41.2916 75.2185 41.3708 75.1804 41.4591C75.1422 41.5474 75.1233 41.6428 75.125 41.7389C75.1286 41.9053 75.1662 42.0693 75.2356 42.2207Z" fill="#9D9D9C"/>
<path d="M85.3115 40.7447C85.5822 40.8255 85.8393 40.9457 86.0746 41.1013L85.8151 41.6667C85.5934 41.5168 85.3486 41.404 85.0902 41.3328C84.8523 41.263 84.6058 41.226 84.3577 41.2228C84.0728 41.2094 83.7896 41.2723 83.5375 41.4049C83.443 41.455 83.3641 41.53 83.3096 41.6217C83.2551 41.7134 83.227 41.8182 83.2284 41.9247C83.2243 42.0986 83.2855 42.2677 83.4001 42.399C83.5191 42.5266 83.6651 42.6264 83.8274 42.6912C83.9991 42.7595 84.2318 42.8392 84.5294 42.9303C84.8265 43.0213 85.1182 43.1289 85.4031 43.2528C85.6235 43.355 85.8169 43.507 85.9677 43.6967C86.1299 43.9162 86.2132 44.1834 86.2043 44.4556C86.2079 44.7277 86.1236 44.9937 85.9639 45.2145C85.7923 45.4438 85.5578 45.619 85.2886 45.7192C84.9711 45.8459 84.6312 45.9079 84.2891 45.9013C83.9092 45.902 83.533 45.8272 83.1826 45.6812C82.8415 45.5465 82.5294 45.3482 82.2632 45.0969L82.5341 44.5581C82.7749 44.7917 83.0585 44.9772 83.3696 45.1045C83.6629 45.2287 83.9779 45.2944 84.2967 45.298C84.6133 45.3152 84.928 45.2387 85.2009 45.0779C85.3041 45.0156 85.389 44.9274 85.4473 44.8222C85.5055 44.717 85.535 44.5985 85.5328 44.4784C85.5387 44.3008 85.4775 44.1275 85.3611 43.9927C85.2416 43.8648 85.0959 43.7639 84.9338 43.6967C84.7017 43.6047 84.4648 43.5249 84.2242 43.4577C83.9295 43.3742 83.6403 43.2729 83.3581 43.1541C83.1367 43.057 82.9428 42.9072 82.7935 42.7178C82.6316 42.4984 82.5495 42.2308 82.5608 41.9589C82.5563 41.7026 82.6368 41.4519 82.7897 41.2455C82.9538 41.0277 83.1777 40.8616 83.4344 40.7674C83.7405 40.6482 84.0672 40.5902 84.3959 40.5967C84.7067 40.6015 85.0152 40.6513 85.3115 40.7447Z" fill="#9D9D9C"/>
<path d="M91.725 41.0976C91.9088 41.261 92.053 41.4637 92.1468 41.6904C92.2406 41.9171 92.2816 42.162 92.2667 42.4067C92.282 42.6577 92.2413 42.9088 92.1477 43.1424C92.054 43.3759 91.9097 43.5859 91.725 43.7575C91.2942 44.1013 90.7501 44.2731 90.1989 44.2394H88.814V45.9014H88.2112V40.6347H90.1989C90.7469 40.602 91.2886 40.7663 91.725 41.0976ZM88.8178 43.6589H90.1798C90.5767 43.686 90.9707 43.5747 91.2939 43.3439C91.4242 43.2287 91.5263 43.0854 91.5924 42.9249C91.6585 42.7645 91.6869 42.5911 91.6754 42.4181C91.6871 42.2489 91.6587 42.0794 91.5924 41.9232C91.5262 41.767 91.4239 41.6285 91.2939 41.5188C90.9668 41.2971 90.5748 41.1903 90.1798 41.2153H88.8178V43.6589Z" fill="#9D9D9C"/>
<path d="M94.6323 41.2152V42.9455H97.3029V43.5412H94.6323V45.3435H97.7187V45.9165H94.0256V40.6346H97.6348V41.2152H94.6323Z" fill="#9D9D9C"/>
<path d="M103.228 40.9838C103.633 41.2075 103.971 41.5334 104.208 41.9286C104.389 42.2297 104.508 42.5639 104.556 42.9114C104.604 43.2589 104.581 43.6125 104.489 43.9511C104.397 44.2897 104.237 44.6063 104.019 44.8821C103.801 45.1578 103.529 45.3871 103.22 45.5561C102.792 45.7873 102.311 45.9061 101.824 45.9014H99.7026V40.6347H101.832C102.32 40.6262 102.802 40.7467 103.228 40.9838ZM100.305 45.3284H101.851C102.221 45.3338 102.587 45.2422 102.911 45.0628C103.229 44.8918 103.493 44.6371 103.674 44.3267C103.862 44.0082 103.958 43.6447 103.953 43.2756C103.959 42.9071 103.861 42.5443 103.67 42.2284C103.489 41.9121 103.225 41.6501 102.907 41.4695C102.58 41.2863 102.211 41.1921 101.835 41.1963H100.309L100.305 45.3284Z" fill="#9D9D9C"/>
<path d="M106.41 45.9013V40.6346H107.012V45.9013H106.41Z" fill="#9D9D9C"/>
<path d="M110.988 41.2152V45.9013H110.381V41.2152H108.661V40.6346H112.72V41.2152H110.988Z" fill="#9D9D9C"/>
<path d="M114.361 45.9013V40.6346H114.967V45.9013H114.361Z" fill="#9D9D9C"/>
<path d="M120.991 40.9761C121.407 41.2017 121.754 41.533 121.999 41.9361C122.248 42.3361 122.38 42.7974 122.38 43.2679C122.379 43.7408 122.247 44.2043 121.999 44.6074C121.753 45.0113 121.406 45.3447 120.991 45.575C120.564 45.8088 120.085 45.9314 119.597 45.9314C119.109 45.9314 118.63 45.8088 118.202 45.575C117.789 45.3446 117.443 45.0111 117.199 44.6074C116.957 44.2021 116.829 43.7394 116.829 43.2679C116.829 42.7965 116.957 42.3338 117.199 41.9285C117.443 41.5273 117.789 41.1974 118.202 40.9723C118.63 40.7358 119.113 40.6141 119.603 40.6194C120.089 40.6145 120.568 40.7375 120.991 40.9761ZM118.523 41.4732C118.199 41.6548 117.927 41.9161 117.733 42.2321C117.537 42.5448 117.435 42.9069 117.439 43.2755C117.435 43.6465 117.537 44.0112 117.733 44.3266C117.929 44.6439 118.204 44.9056 118.532 45.0864C118.859 45.2672 119.228 45.361 119.603 45.3587C119.978 45.363 120.349 45.2673 120.675 45.0817C120.997 44.9006 121.267 44.639 121.457 44.3228C121.65 44.0063 121.751 43.6422 121.747 43.2717C121.752 42.9036 121.651 42.5417 121.457 42.2283C121.161 41.7491 120.691 41.4024 120.144 41.2609C119.597 41.1194 119.016 41.1941 118.523 41.4694V41.4732Z" fill="#9D9D9C"/>
<path d="M128.011 45.9013L124.833 41.6743V45.9013H124.23V40.6346H124.856L128.03 44.8692V40.6346H128.629V45.9013H128.011Z" fill="#9D9D9C"/>
<path d="M112.213 11.4136C111.343 10.9045 110.349 10.6421 109.34 10.6547C108.257 10.6311 107.193 10.9355 106.288 11.5275C105.382 12.1498 104.664 13.0066 104.212 14.0052C103.828 12.9994 103.139 12.1374 102.24 11.5388C101.622 11.1311 100.93 10.8491 100.203 10.7089C99.4753 10.5687 98.7271 10.5731 98.0014 10.722C97.2757 10.8709 96.5868 11.1612 95.9745 11.5762C95.3622 11.9912 94.8386 12.5228 94.4339 13.1401V10.9583H88.8599C90.8668 15.9755 90.8668 21.5665 88.8599 26.5838H94.4453V18.8431C94.4009 18.1922 94.5842 17.546 94.9642 17.0142C95.1335 16.7965 95.3519 16.6212 95.6017 16.5026C95.8515 16.384 96.1258 16.3253 96.4025 16.3312C96.6484 16.3233 96.8928 16.3715 97.117 16.4721C97.3412 16.5728 97.5392 16.7232 97.6959 16.9118C98.0407 17.3554 98.214 17.9075 98.1842 18.4675V26.5838H104.651V18.8431C104.617 18.1888 104.811 17.5428 105.2 17.0142C105.367 16.796 105.583 16.6202 105.831 16.5015C106.079 16.3827 106.352 16.3244 106.627 16.3312C106.876 16.3209 107.123 16.368 107.35 16.4687C107.577 16.5694 107.778 16.7211 107.936 16.9118C108.282 17.3551 108.456 17.907 108.428 18.4675V26.5838H114.895V16.6006C114.917 15.5227 114.673 14.4558 114.185 13.493C113.738 12.6288 113.054 11.908 112.213 11.4136Z" fill="#2D2E83"/>
<path d="M130.583 12.1954C129.311 11.1835 127.531 10.6776 125.241 10.6776C123.981 10.6845 122.724 10.8116 121.487 11.0571C120.124 11.3297 118.784 11.7104 117.481 12.1954L118.927 16.4793C119.761 16.1583 120.62 15.9045 121.495 15.7204C122.218 15.5634 122.956 15.4769 123.696 15.4624C124.326 15.4228 124.951 15.5808 125.486 15.9139C125.687 16.0582 125.851 16.2487 125.964 16.4693C126.076 16.6899 126.133 16.9341 126.13 17.1813H122.54C120.549 17.2192 119.035 17.6379 118 18.4372C116.965 19.2366 116.449 20.4091 116.451 21.9547C116.451 23.4725 116.917 24.6665 117.848 25.5366C118.778 26.4068 120.067 26.8495 121.712 26.8647C123.704 26.8647 125.177 26.2083 126.13 24.8954V26.5839H132.486V16.4717C132.494 14.6403 131.859 13.2148 130.583 12.1954ZM126.142 21.5904C125.902 21.9625 125.569 22.267 125.177 22.4745C124.801 22.6794 124.38 22.7877 123.952 22.7895C123.759 22.7996 123.566 22.7712 123.385 22.706C123.203 22.6408 123.037 22.5402 122.895 22.41C122.764 22.275 122.663 22.1147 122.598 21.9391C122.532 21.7635 122.503 21.5764 122.514 21.3893C122.514 20.5545 122.975 20.1334 123.891 20.1334H126.134L126.142 21.5904Z" fill="#2D2E83"/>
<path d="M143.265 11.3453C142.435 11.8065 141.728 12.4567 141.201 13.2426V10.9659H134.749V26.5838H141.201V19.1202C141.184 18.7345 141.261 18.3506 141.426 18.0011C141.591 17.6515 141.838 17.3468 142.147 17.1129C142.914 16.5894 143.835 16.3344 144.764 16.3882C145.176 16.3883 145.588 16.4162 145.996 16.4716V10.6661C145.042 10.6534 144.101 10.8874 143.265 11.3453Z" fill="#2D2E83"/>
<path d="M14.2155 11.7817C12.8413 11.0487 11.299 10.6839 9.74022 10.7231C8.20972 10.692 6.69506 11.036 5.32985 11.7248C4.08893 12.362 3.06346 13.3476 2.38071 14.5592C1.66982 15.8743 1.31484 17.3505 1.3506 18.8432C1.31637 20.3101 1.66748 21.7605 2.36926 23.0512C3.05161 24.254 4.08361 25.2235 5.32985 25.8325C6.75557 26.5178 8.32513 26.8547 9.90809 26.8153C11.2985 26.838 12.68 26.5906 13.9751 26.0868C15.1429 25.6225 16.1873 24.8967 17.0273 23.9657L13.6584 20.6759C12.8231 21.5381 11.68 22.0384 10.4766 22.0684C9.89453 22.0991 9.31931 21.9322 8.84518 21.595C8.37104 21.2579 8.02612 20.7706 7.86696 20.213H18.0917C18.0917 20.027 18.1222 19.7538 18.1222 19.3896C18.1691 17.8024 17.8302 16.2273 17.1341 14.7983C16.488 13.524 15.4709 12.4728 14.2155 11.7817ZM7.72961 17.2381C7.83172 16.6429 8.08814 16.0844 8.47358 15.6179C8.64302 15.4271 8.85182 15.2748 9.08575 15.1714C9.31969 15.0681 9.57327 15.0161 9.82924 15.0189C10.0852 15.0218 10.3375 15.0795 10.5691 15.1881C10.8006 15.2967 11.0059 15.4537 11.1709 15.6482C11.5338 16.0953 11.7051 16.6664 11.6478 17.2381H7.72961Z" fill="#2D2E83"/>
<path d="M29.812 18.7028C29.8462 19.3515 29.6637 19.9931 29.2931 20.528C29.134 20.7476 28.9232 20.9251 28.6791 21.0449C28.4349 21.1646 28.165 21.2229 27.8929 21.2147C27.6519 21.2223 27.4124 21.173 27.1942 21.0708C26.9761 20.9685 26.7853 20.8163 26.6377 20.6266C26.3039 20.1766 26.1368 19.6256 26.1646 19.0671V10.9584H19.6788V20.9226C19.6573 22.0033 19.8981 23.0732 20.3808 24.0416C20.8165 24.9038 21.4884 25.6259 22.3189 26.1248C23.1784 26.6355 24.1639 26.8983 25.1651 26.8836C26.0942 26.8992 27.0125 26.6826 27.8357 26.2538C28.6343 25.8246 29.3063 25.1955 29.7853 24.4286V26.6029H36.2711V10.9584H29.7853L29.812 18.7028Z" fill="#2D2E83"/>
<path d="M47.011 11.3454C46.183 11.8068 45.4769 12.457 44.9508 13.2426V10.966H38.4993V26.5839H44.9546V19.1202C44.9372 18.7349 45.0138 18.351 45.1779 18.0015C45.342 17.6519 45.5887 17.3471 45.8969 17.113C46.5256 16.6755 47.2702 16.4326 48.0373 16.4148C48.256 14.4441 48.7531 12.514 49.5137 10.6814C48.6376 10.6973 47.7786 10.9252 47.011 11.3454Z" fill="#2D2E83"/>
<path d="M52.7413 32.211H22.8111C21.098 32.211 19.4613 32.1768 17.9009 32.211L13.4715 32.321L6.27219 32.4994L0 32.6777L6.27219 32.856L13.4715 33.0344L17.8971 33.1444C19.4575 33.1786 21.0942 33.1444 22.8073 33.1444H53.5692C53.2869 32.8409 52.9969 32.5373 52.7413 32.211Z" fill="#00A5DF"/>
<path d="M139.724 32.5032L132.525 32.3287L128.095 32.2186C126.539 32.1769 124.898 32.2186 123.185 32.2186H85.4794C85.2162 32.5374 84.9415 32.8485 84.6592 33.1521H123.196C124.91 33.1521 126.55 33.19 128.107 33.1521L132.536 33.0458L139.735 32.8675L146.008 32.6929L139.724 32.5032Z" fill="#00A5DF"/>
<path fill-rule="evenodd" clip-rule="evenodd" d="M76.0215 23.2789C75.2585 22.7591 75.1326 21.5411 75.331 20.7329C75.8346 18.479 78.0512 16.6804 79.8062 15.4207C77.9291 15.3827 76.5862 15.4624 74.7854 16.1796C76.4374 14.1799 78.7303 12.9581 81.153 12.0967C77.9558 11.2506 74.9838 10.9584 72.0957 12.8936C72.5573 10.9205 73.7706 8.59826 75.4645 7.40681L73.9384 7.72554C71.4471 8.21502 68.5552 9.6607 67.01 11.7287C67.01 11.7287 67.01 11.7021 67.01 11.6869C66.6285 9.92631 66.9719 8.45407 67.464 6.70483C64.7934 8.24158 63.294 10.4006 62.3097 13.2768C61.6331 11.9788 61.1608 10.5852 60.9095 9.14466L60.7951 8.63241C59.33 11.0988 59.0782 13.8687 59.3567 16.6501L57.3423 14.3734C56.7337 16.1481 56.5291 18.0351 56.7433 19.8981C56.9432 21.6035 57.4975 23.2488 58.3711 24.7297C59.2446 26.2106 60.4183 27.4946 61.8175 28.5001C62.5195 29.0034 63.2712 29.4344 64.0609 29.7864C64.8549 30.1289 65.6802 30.3945 66.5255 30.5795C68.2292 30.9437 69.9913 30.9437 71.6951 30.5795C73.4058 30.2211 75.0216 29.5088 76.4374 28.4887C77.8492 27.4573 79.0291 26.1443 79.9016 24.6336C80.3377 23.8779 80.6907 23.0777 80.9546 22.2469C81.1897 21.4155 81.3719 20.5702 81.5001 19.716L81.7939 17.9933C80.8859 19.716 78.3297 24.8574 76.0215 23.3055V23.2789Z" fill="#2A317E"/>
<path fill-rule="evenodd" clip-rule="evenodd" d="M79.463 24.3641C78.6342 25.8243 77.509 27.0971 76.159 28.1016C74.8109 29.1149 73.2623 29.8327 71.6151 30.2075C69.9664 30.5968 68.2529 30.6291 66.5905 30.3024C65.756 30.139 64.9395 29.895 64.1526 29.5738C63.3756 29.2386 62.6311 28.8335 61.9283 28.3634C59.7768 26.8626 58.1716 24.7096 57.3525 22.2262C56.5335 19.7428 56.5447 17.0624 57.3844 14.5858L59.395 16.9459L59.5438 17.1281V16.8928C59.3569 14.3885 59.437 11.9601 60.635 9.65683C60.8767 11.3646 61.4857 13.0004 62.4205 14.453C63.3018 12.1763 64.2212 10.0932 66.167 8.4502C65.7901 10.229 66.0099 12.0817 66.7927 13.7245C68.3493 11.1139 69.8677 9.97556 72.7215 9.01936C72.6951 9.08262 72.659 9.14148 72.6147 9.19391C71.3595 11.1936 71.1077 12.9883 70.7071 15.2878C73.1564 13.0111 74.8657 12.0284 78.2993 12.3319C75.3158 13.9445 74.2094 15.5913 72.2789 18.2285C74.0263 17.3178 75.4227 16.4944 77.4485 16.1909C77.5287 16.1909 77.6088 16.1909 77.6889 16.1643C77.4218 16.3995 77.17 16.6386 76.9259 16.8928C75.9377 17.9135 74.9954 19.1961 74.6863 20.6152C74.517 21.3651 74.5919 22.1491 74.9 22.8539C75.0627 23.2282 75.3269 23.5501 75.663 23.7835C77.6622 25.1078 79.6881 22.6452 80.6609 21.1274C80.5923 21.431 80.5274 21.7497 80.432 22.0533C80.1786 22.842 79.849 23.6044 79.4477 24.3299L79.463 24.3641Z" fill="#DBDADA"/>
<path d="M80.4282 18.1716C80.3584 18.3909 80.3557 18.6258 80.4203 18.8467C80.4849 19.0675 80.6141 19.2643 80.7913 19.412C80.9685 19.5598 81.1859 19.6518 81.4158 19.6765C81.6457 19.7012 81.8779 19.6575 82.0827 19.5508C82.2876 19.4441 82.456 19.2793 82.5666 19.0773C82.6772 18.8753 82.7249 18.6452 82.7038 18.4161C82.6827 18.1871 82.5937 17.9695 82.448 17.7908C82.3023 17.6122 82.1066 17.4806 81.8857 17.4127C81.7399 17.3648 81.586 17.3465 81.4331 17.3589C81.2801 17.3713 81.1312 17.4142 80.9952 17.485C80.8593 17.5558 80.739 17.653 80.6416 17.771C80.5442 17.889 80.4716 18.0252 80.4282 18.1716Z" fill="#2D2E83"/>
<path fill-rule="evenodd" clip-rule="evenodd" d="M74.0493 20.7025C74.2069 19.3524 74.7217 18.068 75.541 16.9802C74.9955 17.2192 71.7029 18.6383 70.6652 19.7653C70.9704 17.3634 74.034 13.9332 75.625 12.6469C72.9849 13.2426 71.6648 14.768 69.9022 16.5438C69.7686 14.7832 70.1273 12.5407 70.9018 10.0515C68.1701 11.52 67.5711 12.738 66.3579 15.3372C65.3489 14.0047 64.7392 12.4157 64.5991 10.7535C63.279 12.7266 62.8784 14.7035 62.3481 16.9536C61.3493 15.9545 60.5413 14.7832 59.9636 13.4969C59.6698 16.0923 60.1086 18.4638 60.8144 20.9681L57.5753 17.8263C57.411 19.7038 57.7214 21.5924 58.4784 23.3201C59.2354 25.0478 60.4148 26.5598 61.9093 27.7184C61.3561 26.7281 61.5278 24.9295 61.5278 24.9295C61.5278 24.9295 62.5465 28.3825 64.7173 29.2855L64.9119 29.3766C65.4091 29.5642 65.9191 29.7164 66.438 29.8319C67.2237 30.012 68.0276 30.1011 68.8339 30.0975C70.9573 30.0965 73.038 29.5037 74.8398 28.3864C76.6417 27.269 78.0926 25.6719 79.0281 23.776C76.594 25.5784 73.8509 23.6318 74.0493 20.7025ZM72.3096 21.2906C72.2695 21.4181 72.1924 21.531 72.0879 21.6149C71.9834 21.6988 71.8563 21.75 71.7225 21.762C71.5888 21.7741 71.4545 21.7464 71.3365 21.6825C71.2186 21.6187 71.1223 21.5214 71.06 21.4032C70.9976 21.2849 70.9718 21.1509 70.986 21.0181C71.0002 20.8852 71.0536 20.7596 71.1396 20.657C71.2256 20.5544 71.3402 20.4794 71.469 20.4416C71.5978 20.4038 71.735 20.4048 71.8632 20.4445C71.9484 20.4709 72.0275 20.5137 72.0961 20.5705C72.1646 20.6273 72.2212 20.697 72.2627 20.7756C72.3041 20.8541 72.3296 20.9401 72.3377 21.0285C72.3457 21.1168 72.3362 21.2059 72.3096 21.2906Z" fill="#2D2E83"/>
<path d="M80.5578 3.99929C77.4363 1.5538 73.6145 0.15753 69.6435 0.0118316C65.6726 -0.133867 61.7577 0.978537 58.4635 3.18862C55.1692 5.39871 52.6659 8.59226 51.3145 12.3087C49.9631 16.0252 49.8334 20.0725 50.9442 23.867C49.9814 20.204 50.208 16.332 51.5915 12.8048C52.975 9.27756 55.4447 6.27584 58.6472 4.22895C61.8497 2.18205 65.621 1.19483 69.4218 1.40849C73.2225 1.62215 76.858 3.02575 79.8082 5.41852C82.7584 7.81129 84.8722 11.0707 85.8473 14.7305C86.8223 18.3903 86.6087 22.263 85.237 25.7948C83.8653 29.3265 81.4057 32.3364 78.2101 34.3939C75.0144 36.4514 71.2464 37.451 67.445 37.25C71.4604 37.5732 75.4737 36.602 78.8909 34.4801C82.3081 32.3582 84.9476 29.1983 86.4185 25.4684C87.8895 21.7384 88.1138 17.6365 87.0583 13.7698C86.0028 9.90316 83.7235 6.47728 80.5578 3.99929Z" fill="#00A5DF"/>
<path d="M83.7206 13.1857C84.7945 16.2101 84.8729 19.4958 83.9443 22.5675C83.0158 25.6391 81.1285 28.3371 78.5557 30.271C75.9829 32.205 72.8581 33.2745 69.6335 33.3247C66.4089 33.3749 63.2519 32.4033 60.6195 30.5505C57.987 28.6976 56.0157 26.0597 54.9909 23.0185C53.9661 19.9773 53.9409 16.6907 54.9191 13.6344C55.8972 10.578 57.8279 7.91056 60.4317 6.01806C63.0354 4.12557 66.1772 3.10625 69.4022 3.10764C70.4026 3.10788 71.4006 3.20574 72.3818 3.39982C68.7285 2.47251 64.8675 2.79859 61.4237 4.32528C57.9799 5.85197 55.155 8.4899 53.4062 11.8121C51.6574 15.1342 51.0871 18.9461 51.7877 22.6307C52.4883 26.3153 54.4186 29.6569 57.2663 32.1146C60.114 34.5723 63.7124 36.0023 67.4789 36.1729C71.2454 36.3436 74.9596 35.245 78.0202 33.055C81.0808 30.8651 83.3087 27.7119 84.3433 24.1059C85.3778 20.4999 85.1584 16.6522 83.7206 13.1857Z" fill="#2D2E83"/>
</g>
<defs>
<clipPath id="clip0_54_4">
<rect width="146" height="46" fill="white"/>
</clipPath>
</defs>
</svg>
