<svg width="326" height="304" viewBox="0 0 326 304" fill="none" xmlns="http://www.w3.org/2000/svg">
<g clip-path="url(#clip0_33_254)">
<path d="M8.80008 96.4C17.0001 105.7 24.6001 114.4 32.2001 123C30.7001 88.8 33.7001 55.9 51.6001 25.9C55.7001 45 60.7001 63.5 70.3001 82C82.4001 46.9 101.7 18.6 134.3 0.0999756C132.1 10.8 129.7 20.8 128.1 30.9C126.5 40.9 126.6 51 129.5 61.9C157.3 29.6 193.3 15.3 234.5 9.09998C213 27.1 200.8 49.6 193.5 76.9C211.3 66 229.2 60.1 248.7 59.3C267.9 58.5 286.4 62.6 305 67.6C276.3 78.9 249.4 92.8 228.7 116.9C238.7 114.8 248.3 112.1 258 110.8C267.8 109.5 277.7 109.6 287.6 109C287.7 109.5 287.9 110 288 110.6C284.8 113.1 281.6 115.6 278.5 118.1C263.1 130.3 248.8 143.4 239.5 161C234.4 170.8 231.4 181.1 233.3 192.3C236.4 210.7 253.7 218.1 268.3 206.4C276 200.2 282.6 192.5 288.8 184.8C294.4 177.8 298.6 169.8 303.5 162.2C302 160.5 300.7 159.2 299.5 157.8C295.4 152.5 295.3 145.4 299 140.1C302.6 135.1 309.4 132.8 315.5 134.7C321.7 136.6 325.7 142.1 325.7 148.6C325.8 155.4 321.9 161 315.1 162.5C311.2 163.4 310.2 165.3 309.7 168.8C303.3 213.5 281.7 249 245.1 275.5C197 310.4 127.3 312.9 76.5001 282C42.4001 261.3 19.2001 232.2 7.10008 194.4C-3.09992 162 -2.19992 129.7 8.80008 96.4ZM72.1001 97.7C59.9001 79.2 53.5001 60 49.5001 39.7C34.5001 68.3 34.2001 99 36.5001 131.5C27.0001 120.4 18.4001 110.5 9.90008 100.5C-6.89992 155.2 2.30008 204.4 38.9001 247.3C78.4001 293.7 142.5 311.1 201.1 291.1C252.2 273.6 284.6 237.6 298.9 185.5C297.1 186.8 295.9 188.5 294.6 190.2C287.4 199.9 279.4 208.8 268.9 215C255.6 222.9 240.3 220.6 231.3 208.6C224.5 199.5 223.2 188.6 225 177.6C227.7 160.9 236.5 147.3 247.3 134.8C251.6 129.9 256.2 125.2 261.4 119.6C237.2 122.3 217.4 133.8 197 143.7C216 114.9 236.9 88.2 269.3 71.6C230.8 66.1 202.1 82.4 176.5 107.2C180.1 80.4 184.5 54.3 199.9 30.3C166.5 39.8 143.3 59.6 126.8 88.6C116.5 67.3 114.9 46.1 118.4 23C94.4001 43.6 82.9001 69.8 72.1001 97.7Z" fill="white" fill-opacity="0.14"/>
<path d="M236.3 75.2C210.2 100.6 186.1 126.2 176.1 161.8C194.1 148.2 214.3 139 235.4 129.5C231.1 137.7 226.9 144.8 223.7 152.3C217.7 166.1 215.4 180.3 220 195.1C226.6 216.7 250.7 232.2 275.4 217.3C276.2 216.8 277.1 216.4 279 216.6C276.4 221.2 274 225.9 271.1 230.3C236.1 283.8 169.1 307 108.3 287C89.5999 280.8 78.4999 267.1 69.8999 250.6C67.0999 245.2 64.7999 239.6 62.2999 234C61.6999 234.1 61.1999 234.2 60.5999 234.3C61.6999 243.8 62.7999 253.3 63.7999 262.2C32.9999 245.5 2.99988 175.7 12.5999 140.3C25.1999 152.7 37.5999 164.8 49.8999 176.9C43.3999 147.2 37.2999 117.9 41.6999 87.4001C49.6999 102.1 58.4999 116 70.7999 128.1C74.4999 114.5 77.7999 101.3 81.5999 88.3001C85.3999 75.4001 90.9999 63.2 99.3999 50.8C102 72.3 108 91 121.6 108.2C133 79.8 148.4 55.8 177.8 42.8C170.7 69.1 164 94.7001 165.7 123.3C186.4 102.1 205.9 81.4 236.3 75.2ZM195.9 180.9C195.9 176.6 192 172.6 187.7 172.5C183.3 172.4 179.5 176.2 179.5 180.7C179.4 185.4 182.9 189 187.5 189C192 189 195.9 185.2 195.9 180.9Z" fill="white" fill-opacity="0.14"/>
</g>
<defs>
<clipPath id="clip0_33_254">
<rect width="325.8" height="303.4" fill="white"/>
</clipPath>
</defs>
</svg>
